<svg height="17" viewBox="0 0 17 17" width="16" xmlns="http://www.w3.org/2000/svg"><g fill="none"><path d="m17 1.0625v11.3333333c0 .2951389-.0737847.6197917-.2213542.9739584-.1475694.3541666-.3246527.6345486-.53125.8411458l-2.0364583 2.0364583c-.2065972.2065973-.4869792.3836806-.8411458.53125-.3541667.1475695-.6788195.2213542-.9739584.2213542h-11.3333333c-.29513889 0-.54600694-.1032986-.75260417-.3098958-.20659722-.2065973-.30989583-.4574653-.30989583-.7526042v-14.875c0-.29513889.10329861-.54600694.30989583-.75260417.20659723-.20659722.45746528-.30989583.75260417-.30989583h14.875c.2951389 0 .5460069.10329861.7526042.30989583.2065972.20659723.3098958.45746528.3098958.75260417zm-4.6041667 10.2708333h3.1875v-9.91666663h-14.16666663v14.16666663h9.91666663v-3.1875c0-.2951389.1032986-.5460069.3098959-.7526041.2065972-.2065973.4574652-.3098959.7526041-.3098959zm3.0989584 1.4166667h-2.7447917v2.7447917c.2139757-.0737848.3652344-.1549479.453776-.2434896l2.0475261-2.0475261c.0885417-.0885416.1697048-.2398003.2434896-.453776zm-11.4947917-6.75v-1h3v1zm0 3v-1h3v1zm0 3v-1h5v1z" fill="#5a5f61"/><circle cx="11.105491" cy="6.639375" fill="#f69a38" r="3.15"/></g></svg>