<?xml version="1.0" encoding="UTF-8"?>
<svg width="24px" height="24px" viewBox="0 0 24 24" version="1.1" xmlns="http://www.w3.org/2000/svg" xmlns:xlink="http://www.w3.org/1999/xlink">
    <!-- Generator: Sketch 48.2 (47327) - http://www.bohemiancoding.com/sketch -->
    <title>sticky-note-used-white</title>
    <desc>Created with Sketch.</desc>
    <defs></defs>
    <g id="Symbols" stroke="none" stroke-width="1" fill="none" fill-rule="evenodd">
        <g id="sticky-note-used-white" fill="#EFEEEE" fill-rule="nonzero">
            <path d="M21,4.0625 L21,15.3958333 C21,15.6909722 20.9262153,16.015625 20.7786458,16.3697917 C20.6310764,16.7239583 20.4539931,17.0043403 20.2473958,17.2109375 L18.2109375,19.2473958 C18.0043403,19.4539931 17.7239583,19.6310764 17.3697917,19.7786458 C17.015625,19.9262153 16.6909722,20 16.3958333,20 L5.0625,20 C4.76736111,20 4.51649306,19.8967014 4.30989583,19.6901042 C4.10329861,19.4835069 4,19.2326389 4,18.9375 L4,4.0625 C4,3.76736111 4.10329861,3.51649306 4.30989583,3.30989583 C4.51649306,3.10329861 4.76736111,3 5.0625,3 L19.9375,3 C20.2326389,3 20.4835069,3.10329861 20.6901042,3.30989583 C20.8967014,3.51649306 21,3.76736111 21,4.0625 Z M16.3958333,14.3333333 L19.5833333,14.3333333 L19.5833333,4.41666667 L5.41666667,4.41666667 L5.41666667,18.5833333 L15.3333333,18.5833333 L15.3333333,15.3958333 C15.3333333,15.1006944 15.4366319,14.8498264 15.6432292,14.6432292 C15.8498264,14.4366319 16.1006944,14.3333333 16.3958333,14.3333333 Z M19.4947917,15.75 L16.75,15.75 L16.75,18.4947917 C16.9639757,18.4210069 17.1152344,18.3398438 17.203776,18.2513021 L19.2513021,16.203776 C19.3398438,16.1152344 19.4210069,15.9639757 19.4947917,15.75 Z M8,9 L8,8 L17,8 L17,9 L8,9 Z M8,12 L8,11 L17,11 L17,12 L8,12 Z M8,15 L8,14 L11,14 L11,15 L8,15 Z" id="Shape"></path>
        </g>
    </g>
</svg>